<svg xmlns="http://www.w3.org/2000/svg" viewBox="0 0 1024 1024" role="img" aria-label="Ícone vetorial">
  <path fill="#000000" d="M549 1025H1V1h1024v1024H549zm45.048-261.402c5.397-.966 10.832-1.757 16.185-2.926 41.759-9.121 82.137-22.632 120.775-40.741 33.725-15.806 67.219-32.274 99.827-50.242 32.621-17.976 63.993-38.215 95.966-57.374 9.995-5.99 15.766-14.55 18.534-25.916 4.065-16.693 6.982-33.449 7.983-50.635 1.68-28.856 1.116-57.553-3.895-86.077-4.796-27.294-12.7-53.647-23.602-79.138-12.234-28.604-27.884-55.292-46.168-80.323-16.396-22.447-34.434-43.636-54.827-62.65-16.671-15.543-33.091-31.453-53.382-42.442-14.716-7.97-30.19-9.828-45.667-3.159-12.492 5.382-24.567 11.826-36.506 18.385-44.948 24.695-88.311 51.937-129.943 81.904-30.814 22.18-60.557 45.727-88.395 71.55-28.698 26.621-55.803 54.823-80.513 85.225-29.861 36.739-56.074 75.646-70.482 121.382-7.2 22.857-11.511 45.972-9.168 70.198 3.111 32.152 16.028 59.425 38.677 82.18 23.822 23.934 53.338 37.628 85.44 46.165 30.86 8.207 62.416 12.118 94.297 10.815 21.385-.873 42.681-3.904 64.862-6.18zM352.2 317.685c5.469-4.599 10.972-9.159 16.403-13.804 35.551-30.405 73.98-56.726 115.449-78.225 25.214-13.072 51.293-24.643 77.579-35.439 36.673-15.063 74.794-25.716 113.691-33.507 6.004-1.203 12.167-2.173 17.806-4.394 2.733-1.076 5.949-4.681 6.157-7.358.207-2.665-2.629-6.796-5.165-8.191-7.096-3.901-14.592-7.304-22.277-9.865-32.527-10.84-66.077-16.069-100.261-18.111-32.696-1.953-65.208-.768-97.497 4.492-28.602 4.659-56.43 12.474-83.651 22.432-52.855 19.337-100.068 47.757-140.726 86.889-25.175 24.231-47.73 50.565-65.794 80.559-25.442 42.243-42.21 87.599-49.398 136.515-3.032 20.639-4.508 41.332-4.183 62.121.213 13.618 1.278 27.25 2.616 40.811.677 6.866 1.962 13.92 4.472 20.299 3.783 9.619 11.302 10.912 19.616 4.72 8.975-6.686 14.447-16.082 19.625-25.52 23.974-43.703 51.018-85.378 81.908-124.497 28.199-35.712 59.014-69.029 93.421-99.928zM696.551 840.118c-8.894 3.742-17.743 7.598-26.692 11.206-28.605 11.532-58.223 19.817-88.499 25.244-21.394 3.835-43.078 6.69-64.756 8.129-20.548 1.364-41.28.916-61.887.125-14.743-.566-29.453-2.727-44.104-4.715-11.839-1.606-23.543-4.187-35.361-5.98-4.296-.652-9.303-1.724-11.726 3.804-1.547 3.532.961 8.466 6.181 11.999 20.513 13.885 42.491 24.903 65.936 32.879 26.733 9.095 54.178 14.569 82.42 16.376 42.654 2.728 84.877.342 126.273-10.649 50.244-13.34 96.163-35.901 138.198-66.493 39.086-28.446 72.727-62.316 101.179-101.312 23.418-32.096 41.778-66.797 52.487-105.275.839-3.014 1.713-6.188-1.652-7.957-3.405-1.791-5.007 1.339-6.825 3.431-.328.377-.652.759-.962 1.152-19.704 24.969-40.394 49.071-62.941 71.537-22.2 22.121-46.119 42.204-71.523 60.554-29.907 21.602-61.74 39.884-95.746 55.946z"></path>
  <path fill="#FFF" d="M593.626 763.703c-21.758 2.171-43.055 5.202-64.439 6.075-31.881 1.303-63.437-2.608-94.297-10.815-32.103-8.537-61.618-22.231-85.44-46.165-22.649-22.755-35.566-50.028-38.677-82.18-2.343-24.226 1.968-47.341 9.168-70.198 14.408-45.736 40.621-84.643 70.482-121.382 24.71-30.402 51.815-58.604 80.513-85.225 27.838-25.823 57.581-49.37 88.395-71.55 41.632-29.967 84.995-57.209 129.943-81.904 11.939-6.559 24.014-13.003 36.506-18.385 15.477-6.669 30.951-4.811 45.667 3.159 20.291 10.989 36.711 26.899 53.382 42.442 20.393 19.014 38.431 40.203 54.827 62.65 18.284 25.031 33.934 51.719 46.168 80.323 10.902 25.491 18.806 51.844 23.602 79.138 5.011 28.524 5.575 57.221 3.895 86.077-1.001 17.186-3.918 33.942-7.983 50.635-2.768 11.366-8.539 19.926-18.534 25.916-31.973 19.159-63.345 39.398-95.966 57.374-32.608 17.968-66.102 34.436-99.827 50.242-38.638 18.109-79.016 31.62-120.775 40.741-5.353 1.169-10.788 1.96-16.185 2.926z"></path>
  <path fill="#FFF" d="M351.923 317.906c-34.131 30.677-64.946 63.994-93.145 99.705-30.89 39.119-57.934 80.794-81.908 124.497-5.178 9.438-10.65 18.834-19.625 25.52-8.313 6.192-15.833 4.899-19.616-4.72-2.509-6.379-3.795-13.433-4.472-20.299-1.338-13.561-2.403-27.193-2.616-40.811-.325-20.789 1.151-41.482 4.183-62.121 7.188-48.916 23.956-94.272 49.398-136.515 18.064-29.994 40.619-56.328 65.794-80.559 40.658-39.132 87.871-67.552 140.726-86.889 27.221-9.958 55.049-17.773 83.651-22.432 32.289-5.26 64.801-6.445 97.497-4.492 34.184 2.042 67.734 7.271 100.261 18.111 7.685 2.561 15.181 5.964 22.277 9.865 2.536 1.395 5.372 5.526 5.165 8.191-.208 2.677-3.424 6.282-6.157 7.358-5.639 2.221-11.802 3.191-17.806 4.394-38.897 7.791-77.018 18.444-113.691 33.507-26.286 10.796-52.365 22.367-77.579 35.439-41.469 21.499-79.898 47.82-115.449 78.225-5.431 4.645-10.934 9.205-16.403 13.804z"></path>
  <path fill="#FFFF" d="M696.905 839.985c33.652-15.929 65.485-34.211 95.393-55.813 25.404-18.35 49.323-38.433 71.523-60.554 22.547-22.466 43.237-46.568 62.941-71.537.31-.393.634-.775.962-1.152 1.818-2.092 3.42-5.222 6.825-3.431 3.365 1.769 2.491 4.943 1.652 7.957-10.709 38.478-29.069 73.179-52.487 105.275-28.452 38.996-62.093 72.866-101.179 101.312-42.035 30.592-87.954 53.153-138.198 66.493-41.396 10.991-83.619 13.377-126.273 10.649-28.242-1.807-55.687-7.281-82.42-16.376-23.445-7.976-45.423-18.994-65.936-32.879-5.22-3.533-7.728-8.467-6.181-11.999 2.423-5.528 7.43-4.456 11.726-3.804 11.818 1.793 23.522 4.374 35.361 5.98 14.651 1.988 29.361 4.149 44.104 4.715 20.607.791 41.339 1.239 61.887-.125 21.678-1.439 43.362-4.294 64.756-8.129 30.276-5.427 59.894-13.712 88.499-25.244 8.949-3.608 17.798-7.464 26.692-11.206z"></path>
</svg>